<?xml version="1.0" encoding="UTF-8"?>
<svg id="Layer_2" data-name="Layer 2" xmlns="http://www.w3.org/2000/svg" viewBox="0 0 1920 1080">
  <defs>
    <style>
      .cls-1 {
        fill: #fff;
      }
    </style>
  </defs>
  <rect class="cls-1" width="1920" height="1080"/>
  <g>
    <path d="M629.36,613.87s11.53,12.32,30.37,18.25v-12.03l-20.95-.84-9.42-5.37Z"/>
    <polygon points="629.56 501.79 629.57 497.25 659.73 497.25 657.55 501.08 629.56 501.79"/>
    <path d="M506.95,497.25l45.07-.52s0,4.21-2.47,4.63-35.93-.56-35.93-.56l-6.68-3.55Z"/>
    <rect x="1036.38" y="566.58" width="9.64" height="27.4"/>
    <polygon points="1319.09 656.93 1321.24 654.25 1330.93 667.07 1319.09 656.93"/>
    <g>
      <path d="M736.3,637.12c18.95-.08,38.23-6.81,50.91-21.22l-18.45-20.57c-16.46,14.44-36.83,19.39-56.06,6.57-27.14-18.09-23.45-60.97,6.36-74.27,18.24-8.14,34.65-3.39,49.57,8.53l17.43-20.3c-13.28-16.15-34.57-21.86-54.89-20.4-91.75,6.6-86.82,142.04,5.13,141.67Z"/>
      <path d="M629.36,613.87c8.92,6.99,18.29,14.67,30.37,12.71v-102.96h-30.21l-.16,90.26Z"/>
      <polygon points="659.73 497.25 630.75 497.25 629.57 498.79 629.54 515.19 659.73 515.19 659.73 497.25"/>
      <path d="M681.37,646.99c-42.03-2.81-77.49-30.81-96.92-66.63l16.38-15.25c30.99-37.62,9.23-83.72-38.61-87.77-23.01-1.95-48.59,1.45-71.87,0v202.46l32.72-.16v-98.2h25.12c16.02,26.27,32.24,49.41,57.48,67.63,27.39,19.77,54.76,27.93,88.55,29.51,42.72,1.99,402.65,2.35,446.52,1.31v-28.57c-49.76,1.27-411.44-1.12-459.37-4.33ZM567.88,550.84c-1.11.54-6.2,2.53-6.82,2.53h-37.98v-46.79h35.64c3,0,11.39,3.83,14.02,5.85,12.6,9.68,8.93,31.76-4.86,38.41Z"/>
      <path d="M1392.89,476.85v145.06c0,.72-2.29,6.5-2.87,7.92-8.7,21.1-39.79,17.15-51.89,1.93l-17.44,23.22c-1.72,3.32,10.02,12.12,13.01,14.04.8.52,1.61,1.01,2.44,1.49,31.39,18.14,78.99,7.62,91.52-28.65.62-1.78,2.99-9.47,2.99-10.5v-154.51h-37.75Z"/>
      <path d="M1108.59,586.92c32.55-13.25,38.35-59.85,8.34-79.56-8-5.25-22.57-10.11-32.04-10.11h-54.26v121.29l-45.81-120.26-33.79-1.1-47.9,122.42v-122.34h-29.5v47.74h0v33.6h0v55.77h56.9l10.42-31.01,21.12-.03v-24.86h-12.57l17.39-48.53,17.39,48.53h-12.57v24.84l21.04-.03,11.55,31.08h55.84v-110.74h25.81c5.77,0,15.34,6.2,18.28,11.23,5.24,8.97,1.72,22.05-6.86,27.62-.92.6-6.74,3.33-7.21,3.33h-20.47l-.13,25.31h10.06c10.79,20.02,20.64,41.71,46.37,44.29,3.64.36,8.78.66,14.76.87v-22.45c-4.51-.03-8.62-.25-11.37-.8-9.03-1.84-16.27-18.77-20.79-26.1Z"/>
      <path d="M1313.33,515.3c-39.73-48.14-97.81-37.12-153.62-38.23v159.2h42.79v-120.96h28.27c43.64,0,73.77,49,56.08,88.26-19.23,42.65-61.75,45.04-101.86,45.89-7.07.15-14.99.27-25.44.31v29.16c33.99,1.05,80.87.16,99.23-4.02,70.86-16.14,101.35-102.9,54.54-159.62Z"/>
      <polygon points="821.99 576.35 863.99 576.35 863.99 548.93 821.99 548.93 821.99 497.25 791.44 497.25 791.44 634.36 821.99 634.36 821.99 576.35"/>
    </g>
    <polygon points="951.02 497.18 984.6 497.18 996.66 529.39 956.65 509.12 951.02 497.18"/>
  </g>
</svg>